<svg width="566" height="531" viewBox="0 0 566 531" fill="none" xmlns="http://www.w3.org/2000/svg">
<g filter="url(#filter0_d_1_580)">
<rect x="48" width="470" height="425" rx="19.6219" fill="white"/>
</g>
<g filter="url(#filter1_d_1_580)">
<rect x="106.412" y="65.7333" width="117.793" height="117.793" rx="14.7164" fill="#3FC0FC"/>
</g>
<path fill-rule="evenodd" clip-rule="evenodd" d="M178.83 104.742C178.83 101.262 181.655 98.4365 185.135 98.4365C188.615 98.4365 191.44 101.262 191.44 104.742C191.44 108.221 188.615 111.047 185.135 111.047C181.655 111.047 178.83 108.221 178.83 104.742ZM168.757 131.818L176.318 122.062L176.213 122.114C176.632 121.539 176.71 120.806 176.422 120.152C176.137 119.498 175.507 119.053 174.829 119.001C174.12 118.923 173.416 119.237 172.995 119.812L166.667 128.001L159.417 122.298C158.972 121.957 158.449 121.824 157.926 121.879C157.405 121.957 156.934 122.243 156.617 122.661L148.876 132.736L148.716 132.972C148.272 133.806 148.481 134.879 149.266 135.457C149.632 135.693 150.025 135.85 150.469 135.85C151.074 135.876 151.647 135.559 152.013 135.065L158.58 126.612L166.036 132.213L166.271 132.367C167.109 132.812 168.155 132.606 168.757 131.818ZM174.303 103.094C174.199 103.748 174.146 104.402 174.146 105.056C174.146 110.943 178.908 115.702 184.768 115.702C185.422 115.702 186.05 115.626 186.704 115.521V136.632C186.704 145.504 181.472 150.762 172.577 150.762H153.245C144.347 150.762 139.115 145.504 139.115 136.632V117.274C139.115 108.379 144.347 103.094 153.245 103.094H174.303Z" fill="white"/>
<defs>
<filter id="filter0_d_1_580" x="0.907507" y="0" width="564.185" height="530.958" filterUnits="userSpaceOnUse" color-interpolation-filters="sRGB">
<feFlood flood-opacity="0" result="BackgroundImageFix"/>
<feColorMatrix in="SourceAlpha" type="matrix" values="0 0 0 0 0 0 0 0 0 0 0 0 0 0 0 0 0 0 127 0" result="hardAlpha"/>
<feMorphology radius="31.395" operator="erode" in="SourceAlpha" result="effect1_dropShadow_1_580"/>
<feOffset dy="58.8656"/>
<feGaussianBlur stdDeviation="39.2437"/>
<feColorMatrix type="matrix" values="0 0 0 0 0 0 0 0 0 0 0 0 0 0 0 0 0 0 0.06 0"/>
<feBlend mode="normal" in2="BackgroundImageFix" result="effect1_dropShadow_1_580"/>
<feBlend mode="normal" in="SourceGraphic" in2="effect1_dropShadow_1_580" result="shape"/>
</filter>
<filter id="filter1_d_1_580" x="74.0363" y="49.0547" width="182.545" height="182.545" filterUnits="userSpaceOnUse" color-interpolation-filters="sRGB">
<feFlood flood-opacity="0" result="BackgroundImageFix"/>
<feColorMatrix in="SourceAlpha" type="matrix" values="0 0 0 0 0 0 0 0 0 0 0 0 0 0 0 0 0 0 127 0" result="hardAlpha"/>
<feMorphology radius="11.7731" operator="erode" in="SourceAlpha" result="effect1_dropShadow_1_580"/>
<feOffset dy="15.6975"/>
<feGaussianBlur stdDeviation="22.0746"/>
<feColorMatrix type="matrix" values="0 0 0 0 1 0 0 0 0 0.337255 0 0 0 0 0.439216 0 0 0 0.2 0"/>
<feBlend mode="normal" in2="BackgroundImageFix" result="effect1_dropShadow_1_580"/>
<feBlend mode="normal" in="SourceGraphic" in2="effect1_dropShadow_1_580" result="shape"/>
</filter>
</defs>
</svg>
