<svg width="471" height="425" viewBox="0 0 471 425" fill="none" xmlns="http://www.w3.org/2000/svg">
<rect x="0.490547" y="0.490547" width="470.019" height="424.019" rx="19.1313" fill="white" stroke="#F5F5F5" stroke-width="0.981094"/>
<g filter="url(#filter0_d_1_579)">
<rect x="58.8657" y="65.7333" width="117.793" height="117.793" rx="14.7164" fill="#3C50E0"/>
</g>
<path fill-rule="evenodd" clip-rule="evenodd" d="M128.711 113.906C128.711 120.269 123.608 125.372 117.241 125.372C110.875 125.372 105.771 120.269 105.771 113.906C105.771 107.543 110.875 102.443 117.241 102.443C123.608 102.443 128.711 107.543 128.711 113.906ZM117.241 145.774C107.843 145.774 99.908 144.247 99.908 138.354C99.908 132.458 107.893 130.985 117.241 130.985C126.641 130.985 134.573 132.513 134.573 138.406C134.573 144.301 126.589 145.774 117.241 145.774Z" fill="white"/>
<defs>
<filter id="filter0_d_1_579" x="26.4896" y="49.0547" width="182.545" height="182.545" filterUnits="userSpaceOnUse" color-interpolation-filters="sRGB">
<feFlood flood-opacity="0" result="BackgroundImageFix"/>
<feColorMatrix in="SourceAlpha" type="matrix" values="0 0 0 0 0 0 0 0 0 0 0 0 0 0 0 0 0 0 127 0" result="hardAlpha"/>
<feMorphology radius="11.7731" operator="erode" in="SourceAlpha" result="effect1_dropShadow_1_579"/>
<feOffset dy="15.6975"/>
<feGaussianBlur stdDeviation="22.0746"/>
<feColorMatrix type="matrix" values="0 0 0 0 0.235294 0 0 0 0 0.313726 0 0 0 0 0.878431 0 0 0 0.2 0"/>
<feBlend mode="normal" in2="BackgroundImageFix" result="effect1_dropShadow_1_579"/>
<feBlend mode="normal" in="SourceGraphic" in2="effect1_dropShadow_1_579" result="shape"/>
</filter>
</defs>
</svg>
