<svg width="1019" height="233" viewBox="0 0 1019 233" fill="none" xmlns="http://www.w3.org/2000/svg">
<path d="M52.6878 58.65H14.0978V63.665H30.7578V119H36.0278V63.665H52.6878V58.65ZM79.231 73.95C71.071 73.95 66.141 78.2 63.931 82.535V58.65H58.746V119H63.931V93.585C63.931 83.47 70.306 78.71 77.871 78.71C85.521 78.71 91.556 83.47 91.556 93.585V119H96.741V92.99C96.741 79.815 88.666 73.95 79.231 73.95ZM124.642 73.95C113.592 73.95 102.797 82.025 102.797 96.815C102.797 111.69 113.507 119.85 125.237 119.85C132.122 119.85 138.582 117.045 142.577 112.115L139.857 109.31C136.627 113.135 131.442 115.26 125.832 115.26C116.567 115.26 108.577 109.48 107.727 98.77H145.722C147.167 82.11 135.862 73.95 124.642 73.95ZM124.642 78.54C133.057 78.54 140.792 84.235 141.047 94.605H107.727C108.662 84.065 116.482 78.54 124.642 78.54ZM183.36 119H187.695L204.355 68L220.93 119H225.265L243.455 58.65H237.845L222.8 109.395L206.48 58.65H202.145L185.91 109.395L170.865 58.65H165.255L183.36 119ZM264.518 119.85C275.908 119.85 287.298 111.605 287.298 96.9C287.298 82.195 275.908 73.95 264.518 73.95C253.128 73.95 241.738 82.195 241.738 96.9C241.738 111.605 253.128 119.85 264.518 119.85ZM264.518 115.09C255.593 115.09 246.923 108.63 246.923 96.9C246.923 85.17 255.593 78.71 264.518 78.71C273.443 78.71 282.113 85.17 282.113 96.9C282.113 108.63 273.443 115.09 264.518 115.09ZM312.909 73.95C304.749 73.95 300.329 79.135 298.544 85.085V74.8H293.359V119H298.544V95.54C298.544 85.17 304.919 78.795 312.994 78.795C313.929 78.795 314.524 78.88 315.204 79.05V74.205C314.609 74.035 313.929 73.95 312.909 73.95ZM321.273 119H326.458V58.65H321.273V119ZM372.318 58.65V84.235H372.063C369.513 78.54 362.713 73.95 354.383 73.95C343.333 73.95 332.453 81.855 332.453 96.9C332.453 111.945 343.333 119.85 354.383 119.85C362.713 119.85 369.513 115.26 372.063 109.565H372.318V119H377.503V58.65H372.318ZM355.063 115.09C346.393 115.09 337.638 109.14 337.638 96.9C337.638 84.66 346.393 78.71 355.063 78.71C363.733 78.71 372.488 84.745 372.488 96.9C372.488 109.055 363.733 115.09 355.063 115.09ZM382.761 76.33H387.521L393.811 58.65H388.966L382.761 76.33ZM404.895 119.85C412.205 119.85 419.6 116.025 419.6 107.44C419.6 100.3 414.84 97.325 407.19 94.18L404.215 92.99C399.03 90.865 396.99 88.315 396.99 85C396.99 80.58 400.645 78.37 404.895 78.37C409.57 78.37 412.29 80.835 413.735 84.575L417.9 83.215C416.37 77.605 411.355 73.95 404.725 73.95C397.415 73.95 391.89 78.455 391.89 85C391.89 89.845 394.865 94.095 402.175 97.07L405.575 98.43C411.355 100.895 414.415 102.935 414.415 107.44C414.415 112.965 409.655 115.345 404.895 115.345C399.71 115.345 395.63 112.37 394.27 106.845L389.765 108.12C391.125 115.345 396.82 119.85 404.895 119.85ZM473.375 63.41V58.65H441.585V119H446.855V90.865H470.74V86.36H446.855V63.41H473.375ZM480.29 63.665H485.475V58.65H480.29V63.665ZM480.29 119H485.475V74.8H480.29V119ZM513.144 73.95C504.984 73.95 500.564 79.135 498.779 85.085V74.8H493.594V119H498.779V95.54C498.779 85.17 505.154 78.795 513.229 78.795C514.164 78.795 514.759 78.88 515.439 79.05V74.205C514.844 74.035 514.164 73.95 513.144 73.95ZM533.258 119.85C540.568 119.85 547.963 116.025 547.963 107.44C547.963 100.3 543.203 97.325 535.553 94.18L532.578 92.99C527.393 90.865 525.353 88.315 525.353 85C525.353 80.58 529.008 78.37 533.258 78.37C537.933 78.37 540.653 80.835 542.098 84.575L546.263 83.215C544.733 77.605 539.718 73.95 533.088 73.95C525.778 73.95 520.253 78.455 520.253 85C520.253 89.845 523.228 94.095 530.538 97.07L533.938 98.43C539.718 100.895 542.778 102.935 542.778 107.44C542.778 112.965 538.018 115.345 533.258 115.345C528.073 115.345 523.993 112.37 522.633 106.845L518.128 108.12C519.488 115.345 525.183 119.85 533.258 119.85ZM570.497 79.135V74.8H561.912V63.495H556.727V74.8H551.032V79.135H556.727V111.52C556.727 117.045 560.127 119.51 565.227 119.51C566.927 119.51 568.797 119.255 570.327 118.235V113.985C568.712 114.665 567.352 114.835 566.332 114.835C563.357 114.835 561.912 113.305 561.912 110.415V79.135H570.497ZM592.881 119H609.201C627.561 119 639.121 106.845 639.121 88.825C639.121 70.805 627.561 58.65 609.201 58.65H592.881V119ZM598.151 113.985V63.665H609.031C624.841 63.665 633.681 73.61 633.681 88.825C633.681 104.04 624.841 113.985 609.031 113.985H598.151ZM665.42 119.85C673.75 119.85 680.55 115.26 683.1 109.565H683.355V119H688.54V74.8H683.355V84.235H683.1C680.55 78.54 673.75 73.95 665.42 73.95C654.37 73.95 643.49 81.855 643.49 96.9C643.49 111.945 654.37 119.85 665.42 119.85ZM666.1 115.09C657.43 115.09 648.675 109.14 648.675 96.9C648.675 84.66 657.43 78.71 666.1 78.71C674.77 78.71 683.525 84.745 683.525 96.9C683.525 109.055 674.77 115.09 666.1 115.09ZM714.028 79.135V74.8H705.443V63.495H700.258V74.8H694.563V79.135H700.258V111.52C700.258 117.045 703.658 119.51 708.758 119.51C710.458 119.51 712.328 119.255 713.858 118.235V113.985C712.243 114.665 710.883 114.835 709.863 114.835C706.888 114.835 705.443 113.305 705.443 110.415V79.135H714.028ZM739.841 119.85C748.171 119.85 754.971 115.26 757.521 109.565H757.776V119H762.961V74.8H757.776V84.235H757.521C754.971 78.54 748.171 73.95 739.841 73.95C728.791 73.95 717.911 81.855 717.911 96.9C717.911 111.945 728.791 119.85 739.841 119.85ZM740.521 115.09C731.851 115.09 723.096 109.14 723.096 96.9C723.096 84.66 731.851 78.71 740.521 78.71C749.191 78.71 757.946 84.745 757.946 96.9C757.946 109.055 749.191 115.09 740.521 115.09ZM794.229 73.95C785.899 73.95 779.099 78.54 776.549 84.235H776.294V58.65H771.109V119H776.294V109.565H776.549C779.099 115.26 785.899 119.85 794.229 119.85C805.279 119.85 816.159 111.945 816.159 96.9C816.159 81.855 805.279 73.95 794.229 73.95ZM793.549 115.09C784.879 115.09 776.124 109.055 776.124 96.9C776.124 84.745 784.879 78.71 793.549 78.71C802.219 78.71 810.889 84.66 810.889 96.9C810.889 109.14 802.219 115.09 793.549 115.09ZM841.987 119.85C850.317 119.85 857.117 115.26 859.667 109.565H859.922V119H865.107V74.8H859.922V84.235H859.667C857.117 78.54 850.317 73.95 841.987 73.95C830.937 73.95 820.057 81.855 820.057 96.9C820.057 111.945 830.937 119.85 841.987 119.85ZM842.667 115.09C833.997 115.09 825.242 109.14 825.242 96.9C825.242 84.66 833.997 78.71 842.667 78.71C851.337 78.71 860.092 84.745 860.092 96.9C860.092 109.055 851.337 115.09 842.667 115.09ZM885.835 119.85C893.145 119.85 900.54 116.025 900.54 107.44C900.54 100.3 895.78 97.325 888.13 94.18L885.155 92.99C879.97 90.865 877.93 88.315 877.93 85C877.93 80.58 881.585 78.37 885.835 78.37C890.51 78.37 893.23 80.835 894.675 84.575L898.84 83.215C897.31 77.605 892.295 73.95 885.665 73.95C878.355 73.95 872.83 78.455 872.83 85C872.83 89.845 875.805 94.095 883.115 97.07L886.515 98.43C892.295 100.895 895.355 102.935 895.355 107.44C895.355 112.965 890.595 115.345 885.835 115.345C880.65 115.345 876.57 112.37 875.21 106.845L870.705 108.12C872.065 115.345 877.76 119.85 885.835 119.85ZM926.285 73.95C915.235 73.95 904.44 82.025 904.44 96.815C904.44 111.69 915.15 119.85 926.88 119.85C933.765 119.85 940.225 117.045 944.22 112.115L941.5 109.31C938.27 113.135 933.085 115.26 927.475 115.26C918.21 115.26 910.22 109.48 909.37 98.77H947.365C948.81 82.11 937.505 73.95 926.285 73.95ZM926.285 78.54C934.7 78.54 942.435 84.235 942.69 94.605H909.37C910.305 84.065 918.125 78.54 926.285 78.54ZM233.716 150.41V145.65H201.926V206H207.196V177.865H231.081V173.36H207.196V150.41H233.716ZM258.713 206.85C270.103 206.85 281.493 198.605 281.493 183.9C281.493 169.195 270.103 160.95 258.713 160.95C247.323 160.95 235.933 169.195 235.933 183.9C235.933 198.605 247.323 206.85 258.713 206.85ZM258.713 202.09C249.788 202.09 241.118 195.63 241.118 183.9C241.118 172.17 249.788 165.71 258.713 165.71C267.638 165.71 276.308 172.17 276.308 183.9C276.308 195.63 267.638 202.09 258.713 202.09ZM307.104 160.95C298.944 160.95 294.524 166.135 292.739 172.085V161.8H287.554V206H292.739V182.54C292.739 172.17 299.114 165.795 307.189 165.795C308.124 165.795 308.719 165.88 309.399 166.05V161.205C308.804 161.035 308.124 160.95 307.104 160.95Z" fill="#101472"/>
<path d="M363.582 157.89V145.65H329.072V206H342.502V181.435H362.477V169.96H342.502V157.89H363.582ZM394.637 160.95C386.647 160.95 382.397 166.645 380.952 173.785V161.8H367.777V206H380.952V187.81C380.952 179.48 385.967 173.615 394.722 173.615C395.827 173.615 396.762 173.7 397.782 173.87V161.375C396.677 161.035 395.657 160.95 394.637 160.95ZM420.241 160.95C408.851 160.95 397.716 169.025 397.716 183.985C397.716 198.52 408.766 206.85 421.006 206.85C429.081 206.85 435.371 203.535 439.026 198.945L433.076 192.74C429.846 195.205 426.361 196.14 422.451 196.14C416.586 196.14 412.166 193.76 410.381 189H441.831C444.636 168.77 431.461 160.95 420.241 160.95ZM420.411 172C424.831 172 429.336 174.465 430.271 179.565H410.126C411.571 174.295 415.991 172 420.411 172ZM466.002 160.95C454.612 160.95 443.477 169.025 443.477 183.985C443.477 198.52 454.527 206.85 466.767 206.85C474.842 206.85 481.132 203.535 484.787 198.945L478.837 192.74C475.607 195.205 472.122 196.14 468.212 196.14C462.347 196.14 457.927 193.76 456.142 189H487.592C490.397 168.77 477.222 160.95 466.002 160.95ZM466.172 172C470.592 172 475.097 174.465 476.032 179.565H455.887C457.332 174.295 461.752 172 466.172 172ZM491.362 206H504.537V145.65H491.362V206ZM528.934 206.85C536.754 206.85 541.344 202.6 542.024 200.985H542.279V206H555.454V161.8H542.279V166.815H542.024C541.344 165.2 536.754 160.95 528.934 160.95C518.904 160.95 507.854 168.515 507.854 183.9C507.854 199.285 518.904 206.85 528.934 206.85ZM531.654 195.12C526.044 195.12 520.859 191.04 520.859 183.9C520.859 176.76 526.044 172.68 531.654 172.68C537.434 172.68 542.619 176.675 542.619 183.9C542.619 191.125 537.434 195.12 531.654 195.12ZM587.151 160.95C580.861 160.95 576.526 163.67 574.061 167.41V161.8H560.886V206H574.061V182.285C574.061 176.76 576.866 172.68 582.221 172.68C587.661 172.68 590.466 176.76 590.466 182.285V206H603.641V179.99C603.641 166.475 596.076 160.95 587.151 160.95ZM630.474 206.85C638.294 206.85 645.179 203.11 649.514 195.97L639.994 189.765C637.869 192.655 634.724 194.95 630.474 194.95C624.779 194.95 619.934 190.7 619.934 183.815C619.934 177.1 624.779 172.85 630.474 172.85C634.724 172.85 637.869 175.145 639.994 178.035L649.514 171.83C645.179 164.52 638.294 160.95 630.474 160.95C618.659 160.95 606.929 168.855 606.929 183.815C606.929 198.945 618.659 206.85 630.474 206.85ZM670.815 160.95C659.425 160.95 648.29 169.025 648.29 183.985C648.29 198.52 659.34 206.85 671.58 206.85C679.655 206.85 685.945 203.535 689.6 198.945L683.65 192.74C680.42 195.205 676.935 196.14 673.025 196.14C667.16 196.14 662.74 193.76 660.955 189H692.405C695.21 168.77 682.035 160.95 670.815 160.95ZM670.985 172C675.405 172 679.91 174.465 680.845 179.565H660.7C662.145 174.295 666.565 172 670.985 172ZM723.036 160.95C715.046 160.95 710.796 166.645 709.351 173.785V161.8H696.176V206H709.351V187.81C709.351 179.48 714.366 173.615 723.121 173.615C724.226 173.615 725.161 173.7 726.181 173.87V161.375C725.076 161.035 724.056 160.95 723.036 160.95ZM743.105 206.85C752.965 206.85 760.53 201.835 760.53 192.91C760.53 184.92 754.24 181.605 749.48 179.99L743.955 177.95C740.98 177.015 740.13 175.655 740.13 174.21C740.13 172.68 741.405 171.15 743.955 171.15C745.74 171.15 747.95 171.915 749.055 175.315L759.34 172.765C757.81 165.625 751.775 160.95 743.445 160.95C734.775 160.95 727.38 165.795 727.38 174.04C727.38 179.565 730.525 184.325 737.835 186.96L743.785 189.17C746.675 190.105 747.525 191.465 747.525 192.91C747.525 195.375 745.315 196.565 742.935 196.565C738.77 196.565 737.24 193.59 736.56 191.465L726.105 194.27C727.465 202.685 734.18 206.85 743.105 206.85Z" fill="#101472"/>
<rect x="328" y="228" width="434.007" height="4" fill="#FD835E"/>
<path fill-rule="evenodd" clip-rule="evenodd" d="M930.844 28.2584C933.888 20.6097 935.876 12.475 937.743 4.57745C938.14 2.87582 937.113 1.14865 935.441 0.847538C933.781 0.423132 932.109 1.49261 931.726 3.07107C929.922 10.7263 928.023 18.6199 925.1 25.9078C924.47 27.4601 925.238 29.2855 926.822 29.9509C928.404 30.6162 930.211 29.8106 930.844 28.2584Z" fill="#FD835E"/>
<path fill-rule="evenodd" clip-rule="evenodd" d="M959.681 55.4629C973.966 44.1446 986.754 31.0492 1001.36 20.0138C1002.72 19.0365 1002.99 17.0729 1001.97 15.7189C1000.94 14.3648 998.997 14.036 997.626 15.1365C982.981 26.1678 970.156 39.2594 955.832 50.5737C954.49 51.6773 954.265 53.6456 955.327 55.0031C956.401 56.2373 958.339 56.5666 959.681 55.4629Z" fill="#FD835E"/>
<path fill-rule="evenodd" clip-rule="evenodd" d="M1006.96 84.4939C999.514 84.0808 992.066 83.667 984.616 83.2538C982.919 83.0745 981.453 84.4148 981.353 86.1477C981.255 87.8808 982.569 89.2643 984.268 89.4437C991.729 89.8581 999.188 90.2731 1006.65 90.6874C1008.36 90.7435 1009.82 89.4028 1009.91 87.6688C1009.98 86.0579 1008.67 84.5499 1006.96 84.4939Z" fill="#FD835E"/>
</svg>
