<svg width="911" height="116" viewBox="0 0 911 116" fill="none" xmlns="http://www.w3.org/2000/svg">
<path d="M288.404 70.16C290.324 69.32 292.124 67.36 292.124 64.44C292.124 60.6 289.124 57.6 284.324 57.6H273.924V86H284.084C290.524 86 293.924 82.6 293.924 77.64C293.924 73.32 291.284 70.92 288.404 70.16ZM283.164 62.4C285.604 62.4 286.844 63.52 286.844 65.48C286.844 67.32 285.644 68.64 283.244 68.64H279.404V62.4H283.164ZM283.764 81.2H279.404V72.88H283.684C286.964 72.88 288.484 74.6 288.484 77.08C288.484 79.6 286.964 81.2 283.764 81.2ZM305.486 64.8C300.166 64.8 294.966 68.6 294.966 75.6C294.966 82.52 300.086 86.4 305.806 86.4C309.486 86.4 312.486 84.88 314.206 82.72L311.766 80.12C310.246 81.44 308.446 82 306.406 82C303.286 82 300.806 80.52 300.046 77.68H315.606C316.766 68.52 310.766 64.8 305.486 64.8ZM305.526 69.32C308.046 69.32 310.526 70.8 310.846 73.76H299.966C300.646 70.76 303.046 69.32 305.526 69.32ZM342.82 57.6H323.66V62.64H330.5V86H335.98V62.64H342.82V57.6ZM356.39 64.8C353.27 64.8 351.19 66.2 350.03 68.04V57.6H344.67V86H350.03V74.64C350.03 71.6 351.71 69.6 354.47 69.6C357.27 69.6 358.91 71.6 358.91 74.64V86H364.27V73.76C364.27 67.44 360.67 64.8 356.39 64.8ZM376.662 64.8C371.342 64.8 366.142 68.6 366.142 75.6C366.142 82.52 371.262 86.4 376.982 86.4C380.662 86.4 383.662 84.88 385.382 82.72L382.942 80.12C381.422 81.44 379.622 82 377.582 82C374.462 82 371.982 80.52 371.222 77.68H386.782C387.942 68.52 381.942 64.8 376.662 64.8ZM376.702 69.32C379.222 69.32 381.702 70.8 382.022 73.76H371.142C371.822 70.76 374.222 69.32 376.702 69.32ZM411.796 62.6V57.6H395.836V86H401.316V74.08H411.076V69.4H401.316V62.6H411.796ZM414.05 62.32H419.41V57.6H414.05V62.32ZM414.05 86H419.41V65.2H414.05V86ZM434.183 64.8C430.423 64.8 428.383 67.4 427.663 70.6V65.2H422.303V86H427.663V76.92C427.663 72.76 430.183 69.96 434.223 69.96C434.703 69.96 435.103 70 435.583 70.08V64.96C435.103 64.84 434.663 64.8 434.183 64.8ZM443.641 86.4C448.001 86.4 451.561 84.16 451.561 80C451.561 76.32 448.761 74.8 446.201 73.88L443.881 73C442.241 72.44 441.721 71.68 441.721 70.8C441.721 69.8 442.561 69 443.961 69C445.081 69 446.161 69.52 446.721 71.2L450.921 70.12C450.241 66.92 447.481 64.8 443.721 64.8C439.801 64.8 436.521 67.04 436.521 70.76C436.521 73.28 437.961 75.48 441.401 76.72L443.961 77.68C445.601 78.28 446.241 79 446.241 80C446.241 81.48 444.921 82.16 443.561 82.16C441.521 82.16 440.521 80.76 440.121 79.4L435.841 80.56C436.481 84.4 439.521 86.4 443.641 86.4ZM462.748 81.48C460.988 81.48 460.388 80.44 460.388 79.36V69.48H464.668V65.2H460.388V59.88H454.988V65.2H452.028V69.48H454.988V80.24C454.988 84.52 457.548 86.24 461.068 86.24C462.388 86.24 463.908 86 464.708 85.28V81.16C463.948 81.4 463.228 81.48 462.748 81.48ZM491.952 57.6H472.792V62.64H479.632V86H485.112V62.64H491.952V57.6ZM499.779 86.4C505.179 86.4 510.739 82.64 510.739 75.6C510.739 68.56 505.179 64.8 499.779 64.8C494.339 64.8 488.819 68.56 488.819 75.6C488.819 82.64 494.339 86.4 499.779 86.4ZM499.779 81.56C496.779 81.56 494.099 79.32 494.099 75.6C494.099 71.88 496.779 69.64 499.779 69.64C502.779 69.64 505.419 71.88 505.419 75.6C505.419 79.32 502.779 81.56 499.779 81.56ZM526.335 86.4C530.935 86.4 535.935 83.88 535.935 76.6V57.6H530.455V75.88C530.455 80.56 527.495 81.12 526.055 81.12C523.855 81.12 522.415 79.76 521.575 78.56L518.055 82.12C519.615 84.68 522.455 86.4 526.335 86.4ZM548.718 86.4C554.118 86.4 559.678 82.64 559.678 75.6C559.678 68.56 554.118 64.8 548.718 64.8C543.278 64.8 537.758 68.56 537.758 75.6C537.758 82.64 543.278 86.4 548.718 86.4ZM548.718 81.56C545.718 81.56 543.038 79.32 543.038 75.6C543.038 71.88 545.718 69.64 548.718 69.64C551.718 69.64 554.358 71.88 554.358 75.6C554.358 79.32 551.718 81.56 548.718 81.56ZM561.542 62.32H566.902V57.6H561.542V62.32ZM561.542 86H566.902V65.2H561.542V86ZM581.515 64.8C578.395 64.8 576.315 66.2 575.155 68.04V65.2H569.795V86H575.155V74.64C575.155 71.6 576.835 69.6 579.595 69.6C582.395 69.6 584.035 71.6 584.035 74.64V86H589.395V73.76C589.395 67.44 585.795 64.8 581.515 64.8ZM610.03 86.4C615.99 86.4 620.75 82.56 620.75 75.44V57.6H615.27V75.44C615.27 79.88 612.51 81.24 610.03 81.24C607.51 81.24 604.79 79.88 604.79 75.44V57.6H599.31V75.44C599.31 82.56 604.07 86.4 610.03 86.4ZM630.178 86.4C634.538 86.4 638.098 84.16 638.098 80C638.098 76.32 635.298 74.8 632.738 73.88L630.418 73C628.778 72.44 628.258 71.68 628.258 70.8C628.258 69.8 629.098 69 630.498 69C631.618 69 632.698 69.52 633.258 71.2L637.458 70.12C636.778 66.92 634.018 64.8 630.258 64.8C626.338 64.8 623.058 67.04 623.058 70.76C623.058 73.28 624.498 75.48 627.938 76.72L630.498 77.68C632.138 78.28 632.778 79 632.778 80C632.778 81.48 631.458 82.16 630.098 82.16C628.058 82.16 627.058 80.76 626.658 79.4L622.378 80.56C623.018 84.4 626.058 86.4 630.178 86.4Z" fill="#101472"/>
<rect x="517" y="97" width="122.999" height="4" fill="#FD835E"/>
<path fill-rule="evenodd" clip-rule="evenodd" d="M246.426 68.5278C240.026 66.7318 233.325 65.8258 226.825 64.9958C225.425 64.8218 224.126 65.7928 224.026 67.1608C223.826 68.5298 224.826 69.7817 226.126 69.9557C232.426 70.7548 238.926 71.6097 245.026 73.3387C246.326 73.7137 247.726 72.9418 248.126 71.6138C248.526 70.2868 247.726 68.9038 246.426 68.5278Z" fill="#FFC623"/>
<path fill-rule="evenodd" clip-rule="evenodd" d="M265.825 43.0648C255.525 32.5538 243.925 23.3958 233.825 12.6028C232.925 11.5948 231.325 11.5408 230.325 12.4818C229.325 13.4238 229.225 15.0078 230.225 16.0158C240.325 26.8398 251.925 36.0278 262.225 46.5698C263.225 47.5538 264.825 47.5678 265.825 46.5998C266.725 45.6328 266.825 44.0488 265.825 43.0648Z" fill="#FFC623"/>
<path fill-rule="evenodd" clip-rule="evenodd" d="M285.126 2.63576C285.426 8.65176 285.726 14.6678 286.026 20.6848C286.026 22.0628 287.226 23.1268 288.626 23.0598C290.026 22.9918 291.026 21.8188 291.026 20.4398C290.726 14.4138 290.426 8.38876 290.126 2.36376C290.026 0.985757 288.826 -0.0712432 287.426 0.00375683C286.126 0.0787568 285.026 1.25876 285.126 2.63576Z" fill="#FFC623"/>
</svg>
